<svg width="21" height="18" viewBox="0 0 21 18" fill="none" xmlns="http://www.w3.org/2000/svg">
<path d="M10.5 0.5C16.136 0.5 20.5 4.11749 20.5 8.35742C20.4998 12.5972 16.1358 16.2139 10.5 16.2139C8.98548 16.2139 7.55484 15.9401 6.26758 15.4658L6.00684 15.3691L5.78711 15.541C4.87216 16.2551 3.09178 17.3716 0.730469 17.4883C0.914792 17.2714 1.16888 16.9569 1.43848 16.5723C1.94909 15.8437 2.54446 14.8284 2.82227 13.7314L2.89258 13.4531L2.68848 13.252C1.30839 11.8962 0.500082 10.1955 0.5 8.35742C0.5 4.11749 4.86403 0.5 10.5 0.5Z" fill="#171717" stroke="#171717"/>
</svg>
