<svg width="99" height="27" viewBox="0 0 99 27" fill="none" xmlns="http://www.w3.org/2000/svg">
<path d="M34.4769 19.2315C34.4769 20.2558 34.2894 21.2168 33.9143 22.1145C33.5392 23.0121 33.0262 23.8005 32.3752 24.4795C31.7354 25.1471 30.9852 25.6765 30.1246 26.0678C29.2641 26.4591 28.3429 26.6547 27.361 26.6547H15.4956V1.89898H27.361C28.3429 1.89898 29.2641 2.09463 30.1246 2.48593C30.9852 2.87724 31.7354 3.4124 32.3752 4.09143C33.0262 4.75895 33.5392 5.54156 33.9143 6.43926C34.2894 7.33696 34.4769 8.29795 34.4769 9.32225C34.4769 9.78261 34.4162 10.2545 34.2949 10.7379C34.1735 11.2212 34.0025 11.6873 33.7819 12.1362C33.5612 12.585 33.2965 12.9936 32.9875 13.3619C32.6786 13.7302 32.3366 14.0352 31.9615 14.2769C32.3477 14.4955 32.6952 14.7948 33.0041 15.1746C33.313 15.5428 33.5778 15.9514 33.7984 16.4003C34.0191 16.8491 34.1846 17.321 34.2949 17.8159C34.4162 18.2992 34.4769 18.7711 34.4769 19.2315ZM20.2451 21.7001H27.361C27.692 21.7001 28.0009 21.6368 28.2877 21.5102C28.5746 21.3836 28.8228 21.211 29.0324 20.9923C29.2531 20.7621 29.4241 20.4974 29.5454 20.1982C29.6668 19.899 29.7275 19.5767 29.7275 19.2315C29.7275 18.8862 29.6668 18.5639 29.5454 18.2647C29.4241 17.9655 29.2531 17.7065 29.0324 17.4879C28.8228 17.2577 28.5746 17.0793 28.2877 16.9527C28.0009 16.8261 27.692 16.7628 27.361 16.7628H20.2451V21.7001ZM20.2451 11.8082H27.361C27.692 11.8082 28.0009 11.7449 28.2877 11.6183C28.5746 11.4917 28.8228 11.3191 29.0324 11.1004C29.2531 10.8702 29.4241 10.6055 29.5454 10.3063C29.6668 9.99552 29.7275 9.66752 29.7275 9.32225C29.7275 8.97698 29.6668 8.65473 29.5454 8.3555C29.4241 8.05627 29.2531 7.79731 29.0324 7.57864C28.8228 7.34847 28.5746 7.17008 28.2877 7.04348C28.0009 6.91688 27.692 6.85358 27.361 6.85358H20.2451V11.8082Z" fill="#171717"/>
<path d="M42.9167 3.14194C42.9167 3.57928 42.834 3.98785 42.6685 4.36765C42.514 4.74744 42.2989 5.0812 42.0231 5.36893C41.7473 5.64514 41.4218 5.86957 41.0467 6.0422C40.6827 6.20332 40.291 6.28389 39.8718 6.28389C39.4525 6.28389 39.0554 6.20332 38.6803 6.0422C38.3162 5.86957 37.9963 5.64514 37.7205 5.36893C37.4557 5.0812 37.2405 4.74744 37.0751 4.36765C36.9206 3.98785 36.8434 3.57928 36.8434 3.14194C36.8434 2.71611 36.9206 2.3133 37.0751 1.9335C37.2405 1.5422 37.4557 1.20844 37.7205 0.932225C37.9963 0.644501 38.3162 0.420077 38.6803 0.258951C39.0554 0.0863171 39.4525 0 39.8718 0C40.291 0 40.6827 0.0863171 41.0467 0.258951C41.4218 0.420077 41.7473 0.644501 42.0231 0.932225C42.2989 1.20844 42.514 1.5422 42.6685 1.9335C42.834 2.3133 42.9167 2.71611 42.9167 3.14194ZM42.1389 26.6547H37.5881V8.1656H42.1389V26.6547Z" fill="#171717"/>
<path d="M63.3377 17.2462C63.3377 18.6963 63.1005 20.0198 62.6261 21.2168C62.1517 22.4137 61.5063 23.4437 60.6899 24.3069C59.8735 25.1586 58.9137 25.8203 57.8105 26.2922C56.7183 26.7641 55.5433 27 54.2856 27C53.039 27 51.864 26.7583 50.7608 26.2749C49.6686 25.7916 48.7087 25.1183 47.8813 24.2551C47.0649 23.3919 46.4195 22.3676 45.9451 21.1822C45.4707 19.9853 45.2335 18.6733 45.2335 17.2462V0.811381H49.7678V9.4431C50.0106 9.12084 50.3029 8.83312 50.6449 8.57992C50.998 8.32673 51.3731 8.11957 51.7702 7.95844C52.1784 7.79731 52.5977 7.67647 53.0279 7.59591C53.4582 7.50384 53.8774 7.4578 54.2856 7.4578C55.5433 7.4578 56.7183 7.70524 57.8105 8.20013C58.9137 8.6835 59.8735 9.36253 60.6899 10.2372C61.5063 11.1119 62.1517 12.1477 62.6261 13.3446C63.1005 14.5301 63.3377 15.8306 63.3377 17.2462ZM58.7868 17.2462C58.7868 16.5326 58.6655 15.8708 58.4228 15.2609C58.1911 14.6394 57.8712 14.1042 57.463 13.6554C57.0548 13.2065 56.5749 12.8555 56.0232 12.6023C55.4826 12.3491 54.9034 12.2225 54.2856 12.2225C53.6678 12.2225 53.0831 12.3664 52.5315 12.6541C51.9909 12.9303 51.5165 13.3043 51.1083 13.7762C50.7001 14.2366 50.3801 14.7717 50.1485 15.3817C49.9168 15.9802 49.8009 16.6017 49.8009 17.2462C49.8009 17.9597 49.9168 18.6215 50.1485 19.2315C50.3801 19.8414 50.7001 20.3708 51.1083 20.8197C51.5165 21.2685 51.9909 21.6253 52.5315 21.89C53.0831 22.1432 53.6678 22.2698 54.2856 22.2698C54.9034 22.2698 55.4826 22.1432 56.0232 21.89C56.5749 21.6253 57.0548 21.2685 57.463 20.8197C57.8712 20.3708 58.1911 19.8414 58.4228 19.2315C58.6655 18.6215 58.7868 17.9597 58.7868 17.2462Z" fill="#171717"/>
<path d="M70.404 26.6547H65.8531V0.811381H70.404V26.6547Z" fill="#171717"/>
<path d="M79.1913 3.14194C79.1913 3.57928 79.1086 3.98785 78.9431 4.36765C78.7886 4.74744 78.5735 5.0812 78.2977 5.36893C78.0219 5.64514 77.6964 5.86957 77.3213 6.0422C76.9572 6.20332 76.5656 6.28389 76.1464 6.28389C75.7271 6.28389 75.33 6.20332 74.9548 6.0422C74.5908 5.86957 74.2708 5.64514 73.995 5.36893C73.7303 5.0812 73.5151 4.74744 73.3496 4.36765C73.1952 3.98785 73.118 3.57928 73.118 3.14194C73.118 2.71611 73.1952 2.3133 73.3496 1.9335C73.5151 1.5422 73.7303 1.20844 73.995 0.932225C74.2708 0.644501 74.5908 0.420077 74.9548 0.258951C75.33 0.0863171 75.7271 0 76.1464 0C76.5656 0 76.9572 0.0863171 77.3213 0.258951C77.6964 0.420077 78.0219 0.644501 78.2977 0.932225C78.5735 1.20844 78.7886 1.5422 78.9431 1.9335C79.1086 2.3133 79.1913 2.71611 79.1913 3.14194ZM78.4135 26.6547H73.8626V8.1656H78.4135V26.6547Z" fill="#171717"/>
<path d="M99 17.2462C99 18.6272 98.7628 19.9162 98.2884 21.1132C97.814 22.2986 97.1686 23.3286 96.3522 24.2033C95.5358 25.0665 94.576 25.7513 93.4728 26.2577C92.3806 26.7526 91.2056 27 89.9479 27C88.7012 27 87.5263 26.7526 86.423 26.2577C85.3308 25.7513 84.371 25.0665 83.5436 24.2033C82.7272 23.3286 82.0818 22.2986 81.6074 21.1132C81.133 19.9162 80.8958 18.6272 80.8958 17.2462C80.8958 15.8421 81.133 14.5416 81.6074 13.3446C82.0818 12.1477 82.7272 11.1176 83.5436 10.2545C84.371 9.3798 85.3308 8.69501 86.423 8.20013C87.5263 7.70524 88.7012 7.4578 89.9479 7.4578C91.2056 7.4578 92.3806 7.69373 93.4728 8.1656C94.576 8.62596 95.5358 9.28772 96.3522 10.1509C97.1686 11.0026 97.814 12.0326 98.2884 13.241C98.7628 14.438 99 15.773 99 17.2462ZM94.4491 17.2462C94.4491 16.4866 94.3278 15.8018 94.0851 15.1918C93.8534 14.5703 93.5334 14.0409 93.1252 13.6036C92.717 13.1547 92.2371 12.8152 91.6855 12.585C91.1449 12.3434 90.5657 12.2225 89.9479 12.2225C89.3301 12.2225 88.7454 12.3434 88.1937 12.585C87.6532 12.8152 87.1788 13.1547 86.7706 13.6036C86.3734 14.0409 86.059 14.5703 85.8273 15.1918C85.5956 15.8018 85.4798 16.4866 85.4798 17.2462C85.4798 17.9597 85.5956 18.6215 85.8273 19.2315C86.059 19.8414 86.3734 20.3708 86.7706 20.8197C87.1788 21.2685 87.6532 21.6253 88.1937 21.89C88.7454 22.1432 89.3301 22.2698 89.9479 22.2698C90.5657 22.2698 91.1449 22.149 91.6855 21.9073C92.2371 21.6656 92.717 21.3261 93.1252 20.8887C93.5334 20.4514 93.8534 19.922 94.0851 19.3005C94.3278 18.679 94.4491 17.9942 94.4491 17.2462Z" fill="#171717"/>
<path d="M10.9294 1.75649L15.6546 2.40545L12.5787 26.7783L7.85351 26.1293L10.9294 1.75649Z" fill="#171717"/>
<path d="M6.09913 1.5708L10.7027 2.85762L4.60361 26.6031L0 25.3163L6.09913 1.5708Z" fill="#171717"/>
</svg>
