<svg width="19" height="20" viewBox="0 0 19 20" fill="none" xmlns="http://www.w3.org/2000/svg">
<path d="M18.7416 17.2913L15.0415 13.3971C14.8745 13.2214 14.6481 13.1237 14.4106 13.1237H13.8057C14.83 11.7449 15.4386 10.0107 15.4386 8.12421C15.4386 3.63636 11.9835 0 7.71932 0C3.45514 0 0 3.63636 0 8.12421C0 12.612 3.45514 16.2484 7.71932 16.2484C9.51183 16.2484 11.1596 15.6079 12.4697 14.5298V15.1665C12.4697 15.4165 12.5624 15.6547 12.7294 15.8305L16.4295 19.7246C16.7784 20.0918 17.3425 20.0918 17.6876 19.7246L18.7379 18.6193C19.0867 18.2521 19.0867 17.6584 18.7416 17.2913ZM7.71932 13.1237C5.09549 13.1237 2.96897 10.8896 2.96897 8.12421C2.96897 5.36276 5.09178 3.12469 7.71932 3.12469C10.3431 3.12469 12.4697 5.35885 12.4697 8.12421C12.4697 10.8857 10.3469 13.1237 7.71932 13.1237Z" fill="#EAEAEA"/>
</svg>
